<?xml version="1.0" encoding="iso-8859-1"?>
<!-- Uploaded to: SVG Repo, www.svgrepo.com, Generator: SVG Repo Mixer Tools -->
<svg fill="#c084fc" height="800px" width="800px" version="1.1" id="Layer_1"
	xmlns="http://www.w3.org/2000/svg" xmlns:xlink="http://www.w3.org/1999/xlink"
	viewBox="0 0 503.467 503.467" xml:space="preserve">
<g>
	<g>
		<path d="M403.2,64.533h-192c-11.733,0-21.333,9.6-21.333,21.333s9.6,21.333,21.333,21.333h192c11.733,0,21.333-9.6,21.333-21.333
			S414.934,64.533,403.2,64.533z"/>
	</g>
</g>
<g>
	<g>
		<path d="M346.667,0.533h-91.733c-11.733,0-21.333,9.6-21.333,21.333S243.2,43.2,254.934,43.2h91.733
			C358.4,43.2,368,33.6,368,21.867S358.4,0.533,346.667,0.533z"/>
	</g>
</g>
<g>
	<g>
		<path d="M425.6,136H220.8C99.2,136,0,235.2,0,356.8v61.867C0,430.4,9.6,440,21.333,440h37.333c8.533,36.267,41.6,62.933,80,62.933
			c38.4,0,70.4-26.667,80-62.933h65.067c8.533,36.267,41.6,62.933,80,62.933c39.467,0,71.467-26.667,80-62.933h37.333
			c11.733,0,21.333-9.6,22.4-22.4V212.8C502.4,170.133,468.267,136,425.6,136z M178.134,184v82.133H67.201
			C91.734,225.6,131.2,195.734,178.134,184z M138.667,461.333c-22.4,0-40.533-18.133-40.533-40.533
			c0-22.4,18.133-40.533,40.533-40.533c22.4,0,40.533,18.133,40.533,40.533S161.067,461.333,138.667,461.333z M362.667,461.333
			c-22.4,0-40.533-18.133-40.533-40.533c0-22.4,18.133-40.533,40.533-40.533c22.4,0,40.533,18.133,40.533,40.533
			S385.067,461.333,362.667,461.333z M441.6,397.333c-10.667-34.133-41.6-58.667-78.933-58.667
			c-37.333,0-68.267,24.533-78.933,58.667h-67.2c-10.667-34.133-41.6-58.667-78.933-58.667c-37.333,0-68.267,24.533-78.933,58.667
			H40.534V356.8c0-17.067,2.133-33.067,6.4-48h410.667v88.533H441.6z M458.667,266.133H220.8v-87.467h202.667
			c19.2,0,35.2,16,35.2,35.2V266.133z"/>
	</g>
</g>
</svg>